<?xml version="1.0" standalone="no"?>
<!DOCTYPE svg PUBLIC "-//W3C//DTD SVG 20010904//EN"
 "http://www.w3.org/TR/2001/REC-SVG-20010904/DTD/svg10.dtd">
<svg version="1.0" xmlns="http://www.w3.org/2000/svg"
 width="576.000000pt" height="576.000000pt" viewBox="0 0 576.000000 576.000000"
 preserveAspectRatio="xMidYMid meet">
<metadata>
Created by potrace 1.11, written by Peter Selinger 2001-2013
</metadata>
<g transform="translate(0.000000,576.000000) scale(0.100000,-0.100000)"
fill="#000000" stroke="none">
<path d="M1565 5554 c-40 -10 -139 -50 -160 -66 -132 -96 -208 -239 -206 -388
0 -8 0 -53 0 -100 0 -47 0 -91 0 -97 0 -11 0 -54 0 -120 0 -10 0 -56 0 -103
-1 -47 0 -98 1 -115 1 -16 2 -36 1 -42 0 -7 0 -52 0 -100 1 -88 -1 -140 -5
-178 -1 -11 1 -35 5 -53 4 -17 3 -35 -2 -38 -5 -3 -7 -9 -4 -14 5 -9 9 -95 5
-115 -1 -5 -1 -39 -1 -75 2 -100 1 -153 -2 -180 -2 -14 0 -40 4 -58 4 -17 3
-35 -2 -38 -5 -3 -7 -9 -4 -14 5 -9 9 -95 5 -115 -1 -5 -1 -39 -1 -75 2 -100
1 -153 -2 -180 -2 -14 0 -40 4 -58 4 -17 3 -35 -2 -38 -5 -3 -7 -9 -4 -14 5
-9 9 -95 5 -115 -1 -5 -1 -39 -1 -75 2 -100 1 -153 -2 -180 -2 -14 0 -40 4
-58 4 -17 3 -35 -2 -38 -5 -3 -7 -9 -4 -14 5 -9 9 -95 5 -115 -1 -5 -1 -39 -1
-75 2 -100 1 -153 -2 -180 -2 -14 0 -40 4 -58 4 -17 3 -35 -2 -38 -5 -3 -7 -9
-4 -14 5 -9 9 -96 5 -115 -4 -21 0 -166 5 -175 3 -5 1 -11 -5 -15 -6 -4 -8
-11 -4 -16 3 -5 5 -49 4 -97 -1 -48 -1 -93 -1 -99 0 -11 0 -54 0 -120 0 -10 0
-56 0 -103 0 -47 0 -91 0 -97 0 -11 0 -54 0 -120 0 -10 0 -56 0 -103 0 -47 0
-91 0 -97 0 -11 0 -54 0 -120 0 -10 0 -56 0 -103 -1 -47 0 -98 1 -115 6 -142
10 -176 24 -215 71 -191 240 -310 436 -305 175 5 318 94 398 250 50 100 48
-13 47 2430 -1 1254 -4 2296 -9 2315 -35 163 -161 297 -321 343 -49 14 -170
20 -210 11z"/>
<path d="M2740 5546 c-96 -29 -169 -74 -227 -140 -61 -70 -111 -185 -109 -254
1 -18 -2 -32 -5 -32 -4 0 -3 -16 1 -35 5 -21 4 -35 -2 -35 -5 0 -7 -4 -4 -9 3
-4 5 -35 6 -67 0 -32 0 -68 0 -79 1 -11 1 -27 1 -35 -2 -28 -1 -149 0 -157 1
-4 0 -12 -1 -18 -4 -21 -1 -95 4 -104 4 -5 2 -12 -4 -16 -6 -4 -8 -10 -5 -14
2 -5 5 -33 5 -62 0 -30 0 -63 0 -74 1 -11 1 -27 1 -35 -4 -114 -1 -271 4 -279
3 -6 1 -11 -5 -11 -6 0 -9 -4 -6 -9 3 -4 5 -35 6 -67 0 -32 0 -68 0 -79 1 -11
1 -27 1 -35 -2 -28 -1 -149 0 -157 1 -4 0 -12 -1 -18 -4 -21 -1 -95 4 -104 4
-5 2 -12 -4 -16 -6 -4 -8 -10 -5 -14 2 -5 5 -33 5 -62 0 -30 0 -63 0 -74 1
-11 1 -27 1 -35 -4 -114 -1 -271 4 -279 3 -6 1 -11 -5 -11 -6 0 -9 -4 -6 -9 3
-4 5 -35 6 -67 0 -32 0 -68 0 -79 1 -11 1 -27 1 -35 -2 -28 -1 -149 0 -157 1
-4 0 -12 -1 -18 -4 -21 -1 -95 4 -104 4 -5 3 -12 -2 -15 -5 -3 -6 -27 -2 -54
3 -27 3 -58 -1 -68 -3 -11 -3 -28 1 -40 5 -11 5 -27 0 -34 -4 -7 -7 -18 -5
-24 2 -6 6 -41 9 -77 10 -117 53 -206 138 -289 161 -156 424 -167 594 -25 26
22 50 42 53 45 18 15 80 118 88 145 29 106 29 124 29 1545 -1 784 -5 1431 -9
1437 -5 7 -10 22 -12 32 -15 79 -113 205 -196 254 -103 60 -249 82 -349 53z"/>
<path d="M3965 5553 c-142 -34 -261 -127 -317 -246 -29 -60 -52 -151 -45 -171
3 -7 2 -19 -3 -26 -4 -7 -4 -26 0 -41 5 -16 5 -31 0 -34 -5 -3 -5 -18 -1 -33
5 -15 5 -36 1 -47 -4 -11 -4 -32 1 -47 4 -15 4 -30 -1 -33 -5 -3 -5 -18 0 -34
4 -16 6 -32 4 -34 -7 -7 -10 -97 -4 -97 3 0 5 -27 5 -60 0 -33 -2 -60 -5 -60
-3 0 -4 -30 -3 -67 4 -93 4 -147 1 -226 -2 -37 0 -67 3 -67 3 0 3 -22 -1 -48
-3 -27 -3 -61 1 -75 4 -15 3 -29 -1 -32 -5 -3 -5 -18 -1 -33 5 -15 5 -36 1
-47 -4 -11 -4 -32 1 -47 4 -15 4 -30 -1 -33 -5 -3 -5 -18 0 -34 4 -16 6 -32 4
-34 -7 -7 -10 -97 -4 -97 3 0 5 -27 5 -60 0 -33 -2 -60 -5 -60 -3 0 -4 -30 -3
-67 4 -93 4 -147 1 -226 -2 -37 0 -67 4 -67 3 0 4 -8 2 -17 -6 -27 -10 -143
-4 -143 3 0 5 -27 5 -60 0 -33 -2 -60 -5 -60 -3 0 -4 -30 -3 -67 4 -93 4 -147
1 -226 -2 -37 0 -67 3 -67 3 0 3 -22 -1 -48 -3 -27 -3 -61 1 -75 4 -15 3 -29
-1 -32 -5 -3 -5 -18 -1 -33 5 -15 5 -36 1 -47 -4 -11 -4 -32 1 -47 4 -15 4
-30 -1 -33 -5 -3 -5 -18 0 -34 4 -16 6 -32 4 -34 -7 -7 -10 -97 -4 -97 3 0 5
-27 5 -60 0 -33 -2 -60 -5 -60 -3 0 -4 -30 -3 -67 4 -93 4 -147 1 -226 -2 -37
0 -67 3 -67 3 0 3 -22 -1 -48 -3 -27 -3 -61 1 -75 4 -15 3 -29 -1 -32 -5 -3
-5 -18 -1 -33 5 -15 5 -36 1 -47 -4 -11 -4 -32 1 -47 4 -15 4 -30 -1 -33 -5
-3 -5 -18 0 -34 4 -16 6 -32 4 -34 -7 -7 -10 -97 -4 -97 3 0 5 -27 5 -60 0
-33 -2 -60 -5 -60 -3 0 -4 -30 -3 -67 4 -93 4 -147 1 -226 -2 -37 -1 -67 2
-67 3 0 5 -35 6 -78 0 -60 7 -92 28 -146 30 -74 40 -87 101 -150 119 -122 313
-166 471 -106 125 46 231 155 275 280 l23 65 1 2280 c1 1987 -2 2327 -18 2380
-14 46 -24 67 -53 113 -35 54 -99 122 -115 122 -5 0 -9 4 -9 9 0 12 -106 58
-160 69 -48 10 -152 13 -185 5z"/>
<path d="M5145 5547 c-85 -22 -147 -59 -218 -131 -37 -38 -65 -71 -62 -74 3
-3 -1 -12 -8 -21 -21 -24 -48 -105 -53 -158 -6 -57 -5 -123 2 -135 3 -4 2 -8
-3 -8 -4 0 -7 -19 -6 -42 3 -62 3 -91 2 -108 -1 -18 0 -107 1 -135 1 -11 1
-24 1 -30 -2 -55 -2 -112 -1 -120 1 -5 2 -14 1 -19 -5 -27 -2 -296 3 -304 3
-6 2 -13 -4 -17 -6 -4 -8 -9 -6 -13 2 -4 7 -36 10 -72 4 -36 11 -79 16 -96 27
-82 90 -172 157 -223 41 -31 139 -77 186 -87 30 -6 146 -6 177 1 50 10 138 48
174 75 38 29 106 99 106 109 0 6 4 11 8 11 11 0 51 92 66 150 14 52 16 1086 3
1107 -5 7 -10 22 -12 34 -15 78 -114 204 -198 253 -100 59 -235 80 -342 53z"/>
<path d="M390 2008 c-85 -11 -195 -66 -257 -129 -50 -51 -110 -151 -116 -193
-1 -14 -6 -28 -10 -32 -4 -4 -7 -244 -7 -533 0 -560 1 -571 51 -676 22 -46
150 -187 167 -183 4 1 25 -7 47 -19 123 -63 330 -50 428 27 14 11 28 20 31 20
12 0 80 76 110 124 71 110 70 105 71 666 1 278 -3 530 -7 560 -29 183 -197
346 -378 366 -25 3 -49 6 -55 8 -5 1 -39 -2 -75 -6z"/>
</g>
</svg>
