<?xml version="1.0" standalone="no"?>
<!DOCTYPE svg PUBLIC "-//W3C//DTD SVG 20010904//EN"
 "http://www.w3.org/TR/2001/REC-SVG-20010904/DTD/svg10.dtd">
<svg version="1.0" xmlns="http://www.w3.org/2000/svg"
 width="576.000000pt" height="576.000000pt" viewBox="0 0 576.000000 576.000000"
 preserveAspectRatio="xMidYMid meet">
<metadata>
Created by potrace 1.11, written by Peter Selinger 2001-2013
</metadata>
<g transform="translate(0.000000,576.000000) scale(0.100000,-0.100000)"
fill="#000000" stroke="none">
<path d="M1565 5553 c-11 -2 -27 -7 -35 -10 -8 -4 -18 -7 -22 -8 -5 -2 -10 -4
-13 -5 -3 -1 -8 -3 -12 -4 -25 -6 -96 -50 -132 -82 -94 -85 -152 -216 -152
-344 0 -8 0 -55 0 -105 0 -49 0 -97 0 -105 0 -8 0 -33 0 -55 0 -22 0 -47 0
-55 0 -8 0 -55 0 -105 -1 -49 0 -101 1 -115 1 -14 2 -31 1 -37 -1 -22 -1 -176
0 -213 1 -19 0 -39 -1 -45 -6 -36 -4 -205 3 -205 5 0 5 -5 2 -10 -6 -9 -7 -91
-4 -220 1 -19 0 -39 -1 -45 -6 -36 -4 -205 3 -205 5 0 5 -5 2 -10 -6 -9 -7
-91 -4 -220 1 -19 0 -39 -1 -45 -6 -36 -4 -205 3 -205 5 0 5 -5 2 -10 -6 -9
-7 -91 -4 -220 1 -19 0 -39 -1 -45 -6 -36 -4 -205 3 -205 5 0 5 -5 2 -10 -6
-9 -7 -91 -4 -220 1 -19 0 -39 -1 -45 -6 -36 -4 -205 3 -205 5 0 5 -4 2 -10
-4 -7 -7 -207 -4 -310 1 -25 0 -163 -2 -195 0 -16 -1 -37 -1 -45 1 -8 1 -55 1
-105 0 -49 0 -97 0 -105 0 -8 0 -33 0 -55 0 -22 0 -47 0 -55 0 -8 0 -55 0
-105 0 -49 0 -97 0 -105 0 -8 0 -33 0 -55 0 -22 0 -47 0 -55 0 -36 0 -196 -1
-205 -1 -60 14 -189 27 -225 95 -266 384 -380 640 -253 96 47 174 140 217 260
l22 58 1 2290 c1 1736 -2 2303 -11 2342 -26 112 -110 229 -211 290 -78 48
-235 76 -318 56z"/>
<path d="M2710 5534 c-41 -14 -76 -30 -78 -35 -2 -5 -10 -9 -18 -9 -26 0 -133
-115 -163 -176 -33 -68 -51 -148 -48 -217 1 -26 -2 -47 -6 -47 -5 0 -6 -4 -3
-8 3 -5 5 -33 5 -63 1 -30 1 -65 2 -79 0 -14 0 -31 0 -37 -2 -33 -3 -92 -2
-128 1 -22 1 -62 1 -90 -1 -27 -1 -54 0 -60 1 -5 1 -44 0 -85 -1 -41 -1 -81
-1 -87 1 -20 1 -40 0 -175 0 -70 2 -132 6 -138 3 -5 1 -10 -5 -10 -6 0 -9 -4
-6 -9 3 -5 6 -35 6 -67 0 -33 0 -68 0 -79 0 -11 0 -31 -1 -45 -2 -38 -2 -71 0
-115 1 -22 1 -62 1 -90 -1 -27 -1 -54 0 -60 1 -5 1 -44 0 -85 -1 -41 -1 -81
-1 -87 1 -20 1 -40 0 -175 0 -70 2 -132 6 -138 3 -5 1 -10 -5 -10 -6 0 -9 -4
-6 -9 3 -5 6 -35 6 -67 0 -33 0 -68 0 -79 0 -11 0 -31 -1 -45 -2 -38 -2 -71 0
-115 1 -22 1 -62 1 -90 -1 -27 -1 -54 0 -60 1 -5 1 -44 0 -85 -1 -41 -1 -81
-1 -87 2 -28 2 -44 0 -75 -5 -137 46 -265 144 -359 142 -137 349 -162 530 -66
80 42 183 160 204 232 29 105 29 122 27 1540 -2 1219 -4 1460 -14 1460 -1 0
-3 7 -5 16 -12 64 -105 193 -171 237 -122 81 -269 102 -404 56z"/>
<path d="M3965 5553 c-11 -2 -27 -7 -35 -10 -8 -4 -18 -7 -22 -8 -5 -2 -10 -4
-13 -5 -6 -3 -12 -5 -42 -15 -13 -4 -23 -11 -23 -16 0 -5 -7 -9 -16 -9 -25 0
-137 -120 -163 -176 -30 -63 -40 -98 -47 -159 -3 -27 -7 -51 -9 -53 -2 -2 1
-17 5 -33 5 -16 5 -31 0 -34 -5 -3 -5 -18 -1 -33 5 -15 5 -36 1 -47 -4 -11 -4
-32 1 -47 4 -15 4 -30 -1 -33 -5 -3 -5 -18 0 -34 4 -16 6 -32 4 -34 -7 -7 -10
-97 -4 -97 3 0 5 -27 5 -60 0 -33 -2 -60 -5 -60 -3 0 -4 -30 -3 -67 4 -93 4
-147 1 -226 -2 -37 0 -67 3 -67 3 0 3 -22 -1 -48 -3 -27 -3 -61 1 -75 4 -15 3
-29 -1 -32 -5 -3 -5 -18 -1 -33 5 -15 5 -36 1 -47 -4 -11 -4 -32 1 -47 4 -15
4 -30 -1 -33 -5 -3 -5 -18 0 -34 4 -16 6 -32 4 -34 -7 -7 -10 -97 -4 -97 3 0
5 -27 5 -60 0 -33 -2 -60 -5 -60 -3 0 -4 -30 -3 -67 4 -93 4 -147 1 -226 -2
-37 0 -67 4 -67 3 0 4 -8 2 -17 -6 -27 -10 -143 -4 -143 3 0 5 -27 5 -60 0
-33 -2 -60 -5 -60 -3 0 -4 -30 -3 -67 4 -93 4 -147 1 -226 -2 -37 0 -67 3 -67
3 0 3 -22 -1 -48 -3 -27 -3 -61 1 -75 4 -15 3 -29 -1 -32 -5 -3 -5 -18 -1 -33
5 -15 5 -36 1 -47 -4 -11 -4 -32 1 -47 4 -15 4 -30 -1 -33 -5 -3 -5 -18 0 -34
4 -16 6 -32 4 -34 -7 -7 -10 -97 -4 -97 3 0 5 -27 5 -60 0 -33 -2 -60 -5 -60
-3 0 -4 -30 -3 -67 4 -93 4 -147 1 -226 -2 -37 0 -67 3 -67 3 0 3 -22 -1 -48
-3 -27 -3 -61 1 -75 4 -15 3 -29 -1 -32 -5 -3 -5 -18 -1 -33 5 -15 5 -36 1
-47 -4 -11 -4 -32 1 -47 4 -15 4 -30 -1 -33 -5 -3 -5 -18 0 -34 4 -16 6 -32 4
-34 -7 -7 -10 -97 -4 -97 3 0 5 -27 5 -60 0 -33 -2 -60 -5 -60 -3 0 -4 -30 -3
-67 4 -93 4 -147 1 -226 -2 -37 -1 -67 2 -67 3 0 5 -28 6 -63 1 -34 3 -75 6
-92 6 -37 47 -133 68 -159 20 -26 81 -87 106 -106 23 -18 124 -72 124 -66 0 2
20 -2 45 -9 96 -30 256 0 350 66 49 33 128 116 131 137 2 8 7 18 12 21 6 3 20
35 33 71 l23 65 0 2285 c0 1257 -2 2303 -6 2325 -17 128 -111 255 -238 324
-71 38 -223 61 -295 44z"/>
<path d="M5145 5546 c-183 -45 -325 -210 -341 -395 -9 -95 -9 -121 -1 -121 5
0 5 -4 2 -10 -6 -9 -9 -94 -5 -115 1 -5 1 -14 0 -20 -3 -13 -3 -167 0 -180 1
-5 1 -14 0 -20 -2 -13 -2 -87 0 -100 1 -5 2 -12 1 -15 -6 -16 -5 -190 0 -190
4 0 4 -15 0 -32 -4 -18 -4 -48 0 -66 3 -18 3 -35 -2 -38 -5 -3 -7 -8 -5 -12 2
-4 7 -34 10 -67 7 -67 10 -81 20 -110 27 -71 73 -143 125 -191 37 -35 138 -91
179 -99 12 -2 26 -7 32 -10 11 -7 146 -8 180 0 50 10 139 48 174 75 38 29 106
99 106 109 0 6 4 11 8 11 11 0 51 92 66 150 17 66 13 1106 -4 1128 -2 1 -3 5
-4 10 -3 22 -41 102 -48 102 -4 0 -8 6 -8 14 0 25 -113 126 -175 156 -99 49
-208 61 -310 36z"/>
<path d="M390 2008 c-82 -11 -195 -66 -250 -121 -41 -42 -99 -125 -104 -149
-2 -7 -6 -20 -9 -28 -24 -60 -27 -132 -27 -608 0 -307 5 -524 11 -548 25 -100
86 -196 160 -255 24 -19 46 -34 49 -34 3 -1 23 -10 45 -22 135 -69 327 -51
451 44 65 50 79 65 118 126 71 112 70 102 70 692 0 581 1 575 -62 685 -64 111
-201 203 -322 216 -25 3 -49 6 -55 8 -5 1 -39 -2 -75 -6z"/>
</g>
</svg>
