<?xml version="1.0" encoding="UTF-8"?>
<svg width="72px" height="67px" viewBox="0 0 72 67" version="1.1" xmlns="http://www.w3.org/2000/svg" xmlns:xlink="http://www.w3.org/1999/xlink">
    <!-- Generator: Sketch 49.2 (51160) - http://www.bohemiancoding.com/sketch -->
    <title>JRT Software</title>
    <desc>JRT Software Logo.</desc>
    <defs>
        <path d="M15,5.65208176 C15,2.5305232 17.5401688,0 20.6594203,0 C23.7850318,0 26.3188406,2.54351443 26.3188406,5.65208176 L26.3188406,61.3176152 C26.3188406,64.4391738 23.7786718,66.969697 20.6594203,66.969697 C17.5338088,66.969697 15,64.4261825 15,61.3176152 L15,5.65208176 Z M0,49.9946205 C0,46.8679779 2.54016876,44.3333333 5.65942029,44.3333333 C8.78503181,44.3333333 11.3188406,46.8675097 11.3188406,49.9946205 L11.3188406,61.3387128 C11.3188406,64.4653554 8.77867182,67 5.65942029,67 C2.53380877,67 0,64.4658236 0,61.3387128 L0,49.9946205 Z M30,5.64983745 C30,2.52951839 32.5401688,0 35.6594203,0 C38.7850318,0 41.3188406,2.53445564 41.3188406,5.64983745 L41.3188406,39.6834959 C41.3188406,42.8038149 38.7786718,45.3333333 35.6594203,45.3333333 C32.5338088,45.3333333 30,42.7988777 30,39.6834959 L30,5.64983745 Z M45,5.65208176 C45,2.5305232 47.5401688,0 50.6594203,0 C53.7850318,0 56.3188406,2.54351443 56.3188406,5.65208176 L56.3188406,61.3176152 C56.3188406,64.4391738 53.7786718,66.969697 50.6594203,66.969697 C47.5338088,66.969697 45,64.4261825 45,61.3176152 L45,5.65208176 Z M60,5.66128717 C60,2.5346446 62.5401688,0 65.6594203,0 C68.7850318,0 71.3188406,2.53417636 71.3188406,5.66128717 L71.3188406,17.0053795 C71.3188406,20.1320221 68.7786718,22.6666667 65.6594203,22.6666667 C62.5338088,22.6666667 60,20.1324903 60,17.0053795 L60,5.66128717 Z" id="path-1"></path>
    </defs>
    <g id="Page-1" stroke="none" stroke-width="1" fill="none" fill-rule="evenodd">
        <g id="Artboard" transform="translate(-141.000000, -232.000000)">
            <g id="Logo" transform="translate(141.000000, 232.000000)">
                <mask id="mask-2" fill="white">
                    <use xlink:href="#path-1"></use>
                </mask>
                <use id="Mask" fill="#000000" xlink:href="#path-1"></use>
            </g>
        </g>
    </g>
</svg>