<svg width="72" height="67" viewBox="0 0 72 67" xmlns="http://www.w3.org/2000/svg" xmlns:xlink="http://www.w3.org/1999/xlink"><title>JRT Software</title><desc>JRT Software Logo.</desc><defs><path d="M15 5.652C15 2.531 17.54 0 20.66 0c3.125 0 5.659 2.544 5.659 5.652v55.666c0 3.121-2.54 5.652-5.66 5.652-3.125 0-5.659-2.544-5.659-5.652V5.652zM0 49.995a5.664 5.664 0 0 1 5.66-5.662 5.66 5.66 0 0 1 5.659 5.662v11.344A5.664 5.664 0 0 1 5.659 67 5.66 5.66 0 0 1 0 61.339V49.995zM30 5.65C30 2.53 32.54 0 35.66 0a5.658 5.658 0 0 1 5.659 5.65v34.033c0 3.12-2.54 5.65-5.66 5.65A5.658 5.658 0 0 1 30 39.683V5.65zm15 .002C45 2.531 47.54 0 50.66 0c3.125 0 5.659 2.544 5.659 5.652v55.666c0 3.121-2.54 5.652-5.66 5.652-3.125 0-5.659-2.544-5.659-5.652V5.652zm15 .01A5.664 5.664 0 0 1 65.66 0a5.66 5.66 0 0 1 5.659 5.661v11.344a5.664 5.664 0 0 1-5.66 5.662A5.66 5.66 0 0 1 60 17.005V5.661z" id="a"/></defs><use xlink:href="#a" fill-rule="evenodd"/></svg>